<svg xmlns="http://www.w3.org/2000/svg" viewBox="0 0 1280 320" fill="none">
  <defs>
    <linearGradient id="bg" x1="0" y1="0" x2="1280" y2="320" gradientUnits="userSpaceOnUse">
      <stop offset="0%" stop-color="#0d1117"/>
      <stop offset="50%" stop-color="#111827"/>
      <stop offset="100%" stop-color="#0d1117"/>
    </linearGradient>
    <linearGradient id="accent" x1="0" y1="0" x2="1" y2="1">
      <stop offset="0%" stop-color="#818cf8"/>
      <stop offset="100%" stop-color="#6366f1"/>
    </linearGradient>
    <linearGradient id="warm" x1="0" y1="0" x2="1" y2="1">
      <stop offset="0%" stop-color="#f472b6"/>
      <stop offset="100%" stop-color="#ec4899"/>
    </linearGradient>
  </defs>

  <!-- Background -->
  <rect width="1280" height="320" fill="url(#bg)"/>

  <!-- Subtle dot grid -->
  <g opacity="0.04" fill="#818cf8">
    <circle cx="40" cy="40" r="1.5"/><circle cx="40" cy="80" r="1.5"/><circle cx="40" cy="120" r="1.5"/><circle cx="40" cy="160" r="1.5"/><circle cx="40" cy="200" r="1.5"/><circle cx="40" cy="240" r="1.5"/><circle cx="40" cy="280" r="1.5"/>
    <circle cx="80" cy="40" r="1.5"/><circle cx="80" cy="80" r="1.5"/><circle cx="80" cy="120" r="1.5"/><circle cx="80" cy="160" r="1.5"/><circle cx="80" cy="200" r="1.5"/><circle cx="80" cy="240" r="1.5"/><circle cx="80" cy="280" r="1.5"/>
    <circle cx="120" cy="40" r="1.5"/><circle cx="120" cy="80" r="1.5"/><circle cx="120" cy="120" r="1.5"/><circle cx="120" cy="160" r="1.5"/><circle cx="120" cy="200" r="1.5"/><circle cx="120" cy="240" r="1.5"/><circle cx="120" cy="280" r="1.5"/>
    <circle cx="1160" cy="40" r="1.5"/><circle cx="1160" cy="80" r="1.5"/><circle cx="1160" cy="120" r="1.5"/><circle cx="1160" cy="160" r="1.5"/><circle cx="1160" cy="200" r="1.5"/><circle cx="1160" cy="240" r="1.5"/><circle cx="1160" cy="280" r="1.5"/>
    <circle cx="1200" cy="40" r="1.5"/><circle cx="1200" cy="80" r="1.5"/><circle cx="1200" cy="120" r="1.5"/><circle cx="1200" cy="160" r="1.5"/><circle cx="1200" cy="200" r="1.5"/><circle cx="1200" cy="240" r="1.5"/><circle cx="1200" cy="280" r="1.5"/>
    <circle cx="1240" cy="40" r="1.5"/><circle cx="1240" cy="80" r="1.5"/><circle cx="1240" cy="120" r="1.5"/><circle cx="1240" cy="160" r="1.5"/><circle cx="1240" cy="200" r="1.5"/><circle cx="1240" cy="240" r="1.5"/><circle cx="1240" cy="280" r="1.5"/>
  </g>

  <!-- Decorative code brackets - left -->
  <g transform="translate(180, 80)" opacity="0.07">
    <text font-family="monospace" font-size="160" fill="#818cf8">{</text>
  </g>

  <!-- Decorative code brackets - right -->
  <g transform="translate(1000, 80)" opacity="0.07">
    <text font-family="monospace" font-size="160" fill="#818cf8">}</text>
  </g>

  <!-- Glow behind name -->
  <ellipse cx="640" cy="130" rx="200" ry="60" fill="#818cf8" opacity="0.03"/>

  <!-- Name -->
  <text x="640" y="130" font-family="system-ui, -apple-system, 'Segoe UI', sans-serif" font-size="56" font-weight="700" fill="#e2e8f0" text-anchor="middle" letter-spacing="-1">
    SkyzFallin
  </text>

  <!-- Divider line -->
  <line x1="540" y1="165" x2="740" y2="165" stroke="#818cf8" stroke-width="1" opacity="0.2"/>

  <!-- Tech icons row -->
  <g transform="translate(0, 190)">
    <!-- Terminal prompt -->
    <g transform="translate(460, 0)" opacity="0.35">
      <rect x="0" y="0" width="44" height="32" rx="4" stroke="#818cf8" stroke-width="1.5" fill="none"/>
      <text x="10" y="22" font-family="monospace" font-size="14" fill="#818cf8">$_</text>
    </g>

    <!-- Code file -->
    <g transform="translate(530, 0)" opacity="0.35">
      <rect x="0" y="0" width="44" height="32" rx="4" stroke="#f472b6" stroke-width="1.5" fill="none"/>
      <text x="8" y="22" font-family="monospace" font-size="12" fill="#f472b6">&lt;/&gt;</text>
    </g>

    <!-- Git branch -->
    <g transform="translate(600, 0)" opacity="0.35">
      <rect x="0" y="0" width="44" height="32" rx="4" stroke="#818cf8" stroke-width="1.5" fill="none"/>
      <circle cx="15" cy="12" r="3" stroke="#818cf8" stroke-width="1.5" fill="none"/>
      <circle cx="30" cy="22" r="3" stroke="#818cf8" stroke-width="1.5" fill="none"/>
      <line x1="15" y1="15" x2="30" y2="19" stroke="#818cf8" stroke-width="1.5"/>
    </g>

    <!-- Database -->
    <g transform="translate(670, 0)" opacity="0.35">
      <rect x="0" y="0" width="44" height="32" rx="4" stroke="#f472b6" stroke-width="1.5" fill="none"/>
      <ellipse cx="22" cy="11" rx="10" ry="4" stroke="#f472b6" stroke-width="1.5" fill="none"/>
      <line x1="12" y1="11" x2="12" y2="23" stroke="#f472b6" stroke-width="1.5"/>
      <line x1="32" y1="11" x2="32" y2="23" stroke="#f472b6" stroke-width="1.5"/>
      <ellipse cx="22" cy="23" rx="10" ry="4" stroke="#f472b6" stroke-width="1.5" fill="none"/>
    </g>

    <!-- Cloud -->
    <g transform="translate(740, 0)" opacity="0.35">
      <rect x="0" y="0" width="44" height="32" rx="4" stroke="#818cf8" stroke-width="1.5" fill="none"/>
      <path d="M14 22 C10 22 8 19 10 16 C10 13 14 12 16 13 C17 10 22 9 25 11 C28 9 33 11 33 14 C36 14 37 18 34 20 C35 22 14 22 14 22Z" stroke="#818cf8" stroke-width="1.2" fill="none"/>
    </g>
  </g>

  <!-- Bottom accent -->
  <rect x="0" y="316" width="1280" height="4">
    <animate attributeName="fill" values="#818cf8;#6366f1;#818cf8" dur="4s" repeatCount="indefinite"/>
  </rect>
  <rect x="0" y="316" width="1280" height="4" fill="url(#accent)" opacity="0.4"/>
</svg>
